{
  "accessors": [
    {
      "bufferView": 2,
      "componentType": 5126,
      "count": 12738,
      "max": [
        3.4639599323272705,
        1.2754299640655518,
        -23.796850204467773
      ],
      "min": [
        -3.4639599323272705,
        -0.85705000162124634,
        -26.568670272827148
      ],
      "type": "VEC3"
    },
    {
      "bufferView": 2,
      "byteOffset": 152856,
      "componentType": 5126,
      "count": 12738,
      "max": [
        0.99954712390899658,
        0.99999958276748657,
        0.98953080177307129
      ],
      "min": [
        -0.99954712390899658,
        -0.99997860193252563,
        -0.9999890923500061
      ],
      "type": "VEC3"
    },
    {
      "bufferView": 3,
      "componentType": 5126,
      "count": 12738,
      "max": [
        0,
        0,
        0,
        1
      ],
      "min": [
        0,
        0,
        0,
        1
      ],
      "type": "VEC4"
    },
    {
      "bufferView": 0,
      "componentType": 5125,
      "count": 76032,
      "max": [
        12737
      ],
      "min": [
        0
      ],
      "type": "SCALAR"
    },
    {
      "bufferView": 2,
      "byteOffset": 305712,
      "componentType": 5126,
      "count": 7945,
      "max": [
        5.5262598991394043,
        3.0216400623321533,
        1.2844300270080566
      ],
      "min": [
        -5.5262598991394043,
        -1.2085700035095215,
        -24.269880294799805
      ],
      "type": "VEC3"
    },
    {
      "bufferView": 2,
      "byteOffset": 401052,
      "componentType": 5126,
      "count": 7945,
      "max": [
        0.99866384267807007,
        0.99999362230300903,
        0.67671138048171997
      ],
      "min": [
        -0.99866384267807007,
        -0.88428580760955811,
        -0.63391244411468506
      ],
      "type": "VEC3"
    },
    {
      "bufferView": 1,
      "componentType": 5126,
      "count": 7945,
      "max": [
        0.97323000431060791,
        0.99994999170303345
      ],
      "min": [
        0.02792000025510788,
        4.9999998736893758e-05
      ],
      "type": "VEC2"
    },
    {
      "bufferView": 3,
      "byteOffset": 203808,
      "componentType": 5126,
      "count": 7945,
      "max": [
        0.99996048212051392,
        0.99812394380569458,
        0.99999368190765381,
        1
      ],
      "min": [
        -0.99996048212051392,
        -0.99941706657409668,
        -0.99940478801727295,
        -1
      ],
      "type": "VEC4"
    },
    {
      "bufferView": 0,
      "byteOffset": 304128,
      "componentType": 5125,
      "count": 46080,
      "max": [
        7944
      ],
      "min": [
        0
      ],
      "type": "SCALAR"
    },
    {
      "bufferView": 2,
      "byteOffset": 496392,
      "componentType": 5126,
      "count": 37031,
      "max": [
        12.197589874267578,
        5.1168098449707031,
        5.5998997688293457
      ],
      "min": [
        -12.197589874267578,
        -4.7917699813842773,
        -24.389619827270508
      ],
      "type": "VEC3"
    },
    {
      "bufferView": 2,
      "byteOffset": 940764,
      "componentType": 5126,
      "count": 37031,
      "max": [
        0.99838978052139282,
        0.9999961256980896,
        0.99999886751174927
      ],
      "min": [
        -0.99838823080062866,
        -0.99999946355819702,
        -0.99952918291091919
      ],
      "type": "VEC3"
    },
    {
      "bufferView": 1,
      "byteOffset": 63560,
      "componentType": 5126,
      "count": 37031,
      "max": [
        0.63314998149871826,
        0.99489998817443848
      ],
      "min": [
        -0.031020000576972961,
        -0.0012499999720603228
      ],
      "type": "VEC2"
    },
    {
      "bufferView": 3,
      "byteOffset": 330928,
      "componentType": 5126,
      "count": 37031,
      "max": [
        0.99993234872817993,
        0.91687893867492676,
        0.99950593709945679,
        1
      ],
      "min": [
        -0.99993246793746948,
        -0.99999892711639404,
        -0.99999940395355225,
        -1
      ],
      "type": "VEC4"
    },
    {
      "bufferView": 0,
      "byteOffset": 488448,
      "componentType": 5125,
      "count": 218880,
      "max": [
        37030
      ],
      "min": [
        0
      ],
      "type": "SCALAR"
    }
  ],
  "asset": {
    "generator": "Sketchfab (OSG glTF plugin)",
    "version": "2.0"
  },
  "bufferViews": [
    {
      "buffer": 0,
      "byteLength": 1363968,
      "byteOffset": 0,
      "name": "ScalarBufferView",
      "target": 34963
    },
    {
      "buffer": 0,
      "byteLength": 359808,
      "byteOffset": 1363968,
      "byteStride": 8,
      "name": "Vec3BufferView",
      "target": 34962
    },
    {
      "buffer": 0,
      "byteLength": 1385136,
      "byteOffset": 1723776,
      "byteStride": 12,
      "name": "Vec4BufferView",
      "target": 34962
    },
    {
      "buffer": 0,
      "byteLength": 923424,
      "byteOffset": 3108912,
      "byteStride": 16,
      "name": "MatrixBufferView",
      "target": 34962
    }
  ],
  "buffers": [
    {
      "byteLength": 4032336,
      "uri": "scene.bin"
    }
  ],
  "extensionsRequired": [
    "KHR_materials_pbrSpecularGlossiness"
  ],
  "extensionsUsed": [
    "KHR_materials_pbrSpecularGlossiness"
  ],
  "images": [
    {
      "uri": "textures/pinguin2_diffuse.jpeg"
    },
    {
      "uri": "textures/pinguin3_diffuse.jpeg"
    }
  ],
  "materials": [
    {
      "doubleSided": true,
      "extensions": {
        "KHR_materials_pbrSpecularGlossiness": {
          "diffuseFactor": [
            0,
            0,
            0,
            1
          ],
          "glossinessFactor": 0.18417195250000001,
          "specularFactor": [
            0.057077883876549017,
            0.057077883876549017,
            0.057077883876549017
          ]
        }
      },
      "name": "pinguin1"
    },
    {
      "doubleSided": true,
      "emissiveFactor": [
        0,
        0,
        0
      ],
      "extensions": {
        "KHR_materials_pbrSpecularGlossiness": {
          "diffuseFactor": [
            1,
            1,
            1,
            1
          ],
          "diffuseTexture": {
            "index": 0,
            "texCoord": 0
          },
          "glossinessFactor": 0.37285119779999998,
          "specularFactor": [
            0.14230611763680348,
            0.14230611763680348,
            0.14230611763680348
          ]
        }
      },
      "name": "pinguin2"
    },
    {
      "doubleSided": true,
      "extensions": {
        "KHR_materials_pbrSpecularGlossiness": {
          "diffuseFactor": [
            1,
            1,
            1,
            1
          ],
          "diffuseTexture": {
            "index": 1,
            "texCoord": 0
          },
          "glossinessFactor": 0.14014679529999999,
          "specularFactor": [
            0,
            0,
            0
          ]
        }
      },
      "name": "pinguin3"
    }
  ],
  "meshes": [
    {
      "name": "GeodeCube.001",
      "primitives": [
        {
          "attributes": {
            "NORMAL": 1,
            "POSITION": 0,
            "TANGENT": 2
          },
          "indices": 3,
          "material": 0,
          "mode": 4
        },
        {
          "attributes": {
            "NORMAL": 5,
            "POSITION": 4,
            "TANGENT": 7,
            "TEXCOORD_0": 6
          },
          "indices": 8,
          "material": 1,
          "mode": 4
        },
        {
          "attributes": {
            "NORMAL": 10,
            "POSITION": 9,
            "TANGENT": 12,
            "TEXCOORD_0": 11
          },
          "indices": 13,
          "material": 2,
          "mode": 4
        }
      ]
    }
  ],
  "nodes": [
    {
      "children": [
        1
      ],
      "name": "RootNode (gltf orientation matrix)",
      "rotation": [
        -0.70710678118654746,
        -0,
        -0,
        0.70710678118654757
      ]
    },
    {
      "children": [
        2
      ],
      "name": "RootNode (model correction matrix)"
    },
    {
      "children": [
        3,
        5
      ],
      "name": "Root"
    },
    {
      "children": [
        4
      ],
      "matrix": [
        -0.29086000000000006,
        0.95517000000000007,
        -0.05519000000000001,
        0,
        -0.77110000000000001,
        -0.19988000000000003,
        0.60452000000000006,
        0,
        0.56639000000000006,
        0.21839000000000003,
        0.7946700000000001,
        0,
        4.0762500000000008,
        2.91153,
        10.353870000000001,
        1
      ],
      "name": "Lamp"
    },
    {
      "name": "Lamp"
    },
    {
      "children": [
        6
      ],
      "matrix": [
        -0.14743000000000003,
        0,
        0,
        0,
        0,
        0.35397000000000006,
        0,
        0,
        0,
        0,
        0.15663000000000002,
        0,
        0.31876000000000004,
        1.6606100000000001,
        1.5313099999999999,
        1
      ],
      "name": "Cube"
    },
    {
      "mesh": 0,
      "name": "GeodeCube.001"
    }
  ],
  "samplers": [
    {
      "magFilter": 9729,
      "minFilter": 9987,
      "wrapS": 10497,
      "wrapT": 10497
    }
  ],
  "scene": 0,
  "scenes": [
    {
      "name": "OSG_Scene",
      "nodes": [
        0
      ]
    }
  ],
  "textures": [
    {
      "sampler": 0,
      "source": 0
    },
    {
      "sampler": 0,
      "source": 1
    }
  ]
}

