{
  "accessors": [
    {
      "bufferView": 2,
      "componentType": 5126,
      "count": 16641,
      "max": [
        0.27888301014900208,
        0.47299998998641968,
        0.17096300423145294
      ],
      "min": [
        -0.27888301014900208,
        2.4631599444546737e-06,
        -0.31387999653816223
      ],
      "type": "VEC3"
    },
    {
      "bufferView": 2,
      "byteOffset": 199692,
      "componentType": 5126,
      "count": 16641,
      "max": [
        1,
        1,
        0.99998188018798828
      ],
      "min": [
        -1,
        -1,
        -1
      ],
      "type": "VEC3"
    },
    {
      "bufferView": 1,
      "componentType": 5126,
      "count": 16641,
      "max": [
        0.98003602027893066,
        0.89149200916290283
      ],
      "min": [
        0.0069260802119970322,
        0.14760699868202209
      ],
      "type": "VEC2"
    },
    {
      "bufferView": 3,
      "componentType": 5126,
      "count": 16641,
      "max": [
        0,
        0,
        0,
        1
      ],
      "min": [
        0,
        0,
        0,
        1
      ],
      "type": "VEC4"
    },
    {
      "bufferView": 0,
      "componentType": 5125,
      "count": 92484,
      "max": [
        16640
      ],
      "min": [
        0
      ],
      "type": "SCALAR"
    },
    {
      "bufferView": 2,
      "byteOffset": 399384,
      "componentType": 5126,
      "count": 1474,
      "max": [
        0.29026898741722107,
        0.5,
        0.29026898741722107
      ],
      "min": [
        -0.29026898741722107,
        0.47299998998641968,
        -0.29026898741722107
      ],
      "type": "VEC3"
    },
    {
      "bufferView": 2,
      "byteOffset": 417072,
      "componentType": 5126,
      "count": 1474,
      "max": [
        0.99711751937866211,
        1,
        0.99711751937866211
      ],
      "min": [
        -0.99711751937866211,
        -1,
        -0.99711751937866211
      ],
      "type": "VEC3"
    },
    {
      "bufferView": 1,
      "byteOffset": 133128,
      "componentType": 5126,
      "count": 1474,
      "max": [
        0.99482202529907227,
        0.98629200458526611
      ],
      "min": [
        0.0091784503310918808,
        0.017707500606775284
      ],
      "type": "VEC2"
    },
    {
      "bufferView": 3,
      "byteOffset": 266256,
      "componentType": 5126,
      "count": 1474,
      "max": [
        0,
        0,
        0,
        1
      ],
      "min": [
        0,
        0,
        0,
        1
      ],
      "type": "VEC4"
    },
    {
      "bufferView": 0,
      "byteOffset": 369936,
      "componentType": 5125,
      "count": 8832,
      "max": [
        1473
      ],
      "min": [
        0
      ],
      "type": "SCALAR"
    }
  ],
  "asset": {
    "generator": "Sketchfab (OSG glTF plugin)",
    "version": "2.0"
  },
  "bufferViews": [
    {
      "buffer": 0,
      "byteLength": 405264,
      "byteOffset": 0,
      "name": "ScalarBufferView",
      "target": 34963
    },
    {
      "buffer": 0,
      "byteLength": 144920,
      "byteOffset": 405264,
      "byteStride": 8,
      "name": "Vec3BufferView",
      "target": 34962
    },
    {
      "buffer": 0,
      "byteLength": 434760,
      "byteOffset": 550184,
      "byteStride": 12,
      "name": "Vec4BufferView",
      "target": 34962
    },
    {
      "buffer": 0,
      "byteLength": 289840,
      "byteOffset": 984944,
      "byteStride": 16,
      "name": "MatrixBufferView",
      "target": 34962
    }
  ],
  "buffers": [
    {
      "byteLength": 1274784,
      "uri": "scene.bin"
    }
  ],
  "images": [
    {
      "uri": "textures/Marmo_baseColor.jpeg"
    },
    {
      "uri": "textures/Legno_baseColor.jpeg"
    }
  ],
  "materials": [
    {
      "doubleSided": true,
      "name": "Legno",
      "pbrMetallicRoughness": {
        "baseColorFactor": [
          1,
          1,
          1,
          1
        ],
        "baseColorTexture": {
          "index": 1,
          "texCoord": 0
        },
        "metallicFactor": 0.65000000000000002,
        "roughnessFactor": 0.80000000000000004
      }
    },
    {
      "doubleSided": true,
      "name": "Marmo",
      "pbrMetallicRoughness": {
        "baseColorFactor": [
          1,
          1,
          1,
          1
        ],
        "baseColorTexture": {
          "index": 0,
          "texCoord": 0
        },
        "metallicFactor": 0.59999999999999998,
        "roughnessFactor": 0.90000000000000002
      }
    }
  ],
  "meshes": [
    {
      "primitives": [
        {
          "attributes": {
            "NORMAL": 1,
            "POSITION": 0,
            "TANGENT": 3,
            "TEXCOORD_0": 2
          },
          "indices": 4,
          "material": 0,
          "mode": 4
        },
        {
          "attributes": {
            "NORMAL": 6,
            "POSITION": 5,
            "TANGENT": 8,
            "TEXCOORD_0": 7
          },
          "indices": 9,
          "material": 1,
          "mode": 4
        }
      ]
    }
  ],
  "nodes": [
    {
      "children": [
        1
      ],
      "name": "RootNode (gltf orientation matrix)",
      "rotation": [
        -0.70710678118654746,
        -0,
        -0,
        0.70710678118654757
      ]
    },
    {
      "children": [
        2
      ],
      "name": "RootNode (model correction matrix)"
    },
    {
      "children": [
        3,
        5,
        7,
        9
      ],
      "matrix": [
        1,
        0,
        0,
        0,
        0,
        -4.3711390063094768e-08,
        0.999999999999999,
        0,
        0,
        -0.999999999999999,
        -4.3711390063094768e-08,
        0,
        0,
        0,
        0,
        1
      ],
      "name": "Collada visual scene group"
    },
    {
      "children": [
        4
      ],
      "matrix": [
        0.70710678118654746,
        0,
        0.70710678118654757,
        0,
        0.35355339059327373,
        0.86602540378443871,
        -0.35355339059327368,
        0,
        -0.61237243569579458,
        0.49999999999999994,
        0.61237243569579447,
        0,
        -2,
        2,
        2,
        1
      ],
      "name": "Directional_Light"
    },
    {
      "name": "Directional_Light"
    },
    {
      "children": [
        6
      ],
      "matrix": [
        1,
        0,
        0,
        0,
        0,
        0.99619469809174555,
        -0.087155742747658166,
        0,
        0,
        0.087155742747658166,
        0.99619469809174555,
        0,
        0,
        0.75,
        4,
        1
      ],
      "name": "Camera"
    },
    {
      "name": "Camera-camera003"
    },
    {
      "children": [
        8
      ],
      "name": "Mesh"
    },
    {
      "mesh": 0,
      "name": ""
    },
    {
      "children": [
        10
      ],
      "name": "Render"
    },
    {
      "name": "Render"
    }
  ],
  "samplers": [
    {
      "magFilter": 9729,
      "minFilter": 9987,
      "wrapS": 10497,
      "wrapT": 10497
    }
  ],
  "scene": 0,
  "scenes": [
    {
      "name": "OSG_Scene",
      "nodes": [
        0
      ]
    }
  ],
  "textures": [
    {
      "sampler": 0,
      "source": 0
    },
    {
      "sampler": 0,
      "source": 1
    }
  ]
}

